<svg width="164" height="60" viewBox="0 0 164 60" fill="none" xmlns="http://www.w3.org/2000/svg">
<path d="M34.6685 25.767H31.3558L29.5151 4.93265C29.2943 4.71176 29.0735 4.56445 28.9262 4.34357L30.8404 25.767H28.7789L26.644 2.65042C26.4231 2.50311 26.1287 2.35597 25.9078 2.20866L28.1164 25.6932H26.2022L23.9202 1.25156C23.6256 1.10441 23.3311 1.03067 23.1102 0.9571L25.3924 25.767H23.552L21.1962 0.441766C20.9017 0.368194 20.6073 0.294621 20.2391 0.220883L22.5949 25.6932H21.8588L20.6808 23.8528L18.5459 0C18.1777 0 17.8833 0 17.5153 0L19.5766 21.9387L17.7361 18.9939L15.9692 0.0737413H15.8955C15.5275 0.0737413 15.1595 0.147311 14.7913 0.220883L16.3373 16.9325L14.6441 14.2087L13.3925 0.515334C12.9508 0.589073 12.5827 0.736216 12.141 0.883527L13.1717 11.8529L11.6256 9.34978L10.8895 1.32529C10.4477 1.54601 10.006 1.69332 9.5643 1.98777L10.006 6.7731L8.60725 4.49088L8.46 2.57668C8.23915 2.72399 7.94467 2.8713 7.72382 3.01845V2.94487C-0.0062393 7.87735 -2.28844 17.9632 2.49684 25.6196L2.71768 25.9877C3.52751 27.2392 4.55818 28.4172 5.66247 29.4479C5.88332 29.6688 6.10419 29.8159 6.32504 30.0368C6.47228 30.1841 6.5459 30.2577 6.69315 30.405C6.84037 30.4786 6.914 30.5521 7.06124 30.6994L7.2821 30.8466C7.42933 30.9939 7.6502 31.1412 7.87105 31.2148L8.01829 31.2883C8.16553 31.4356 8.3864 31.5092 8.53363 31.6565C8.60725 31.6565 8.68087 31.7301 8.68087 31.7301C11.4784 33.497 14.7913 34.4539 18.2515 34.4539H21.4906C21.4171 34.5277 21.3435 34.6748 21.3435 34.7486L23.1102 53.8895C23.3311 54.1104 23.552 54.3313 23.7729 54.6258L21.9324 34.5277H23.9202L25.9815 56.6135C26.2022 56.7607 26.4969 56.9816 26.7176 57.1289L24.5827 34.5277H26.4969L28.7053 58.3067C28.9998 58.454 29.2207 58.6011 29.5151 58.6749L27.3066 34.5277H29.0735L31.3558 59.3374C31.6502 59.4109 31.9447 59.4847 32.3127 59.5582L29.9569 34.5277H31.6502L34.006 59.8527C34.374 59.9263 34.6685 59.9263 35.0367 59.9263L32.828 36.2946L34.6685 39.1657L36.5827 60C36.9507 60 37.3189 60 37.6869 59.9263H37.7605L36.0674 41.3006L37.7605 43.9509L39.2329 59.7056C39.6747 59.6318 40.0427 59.5582 40.4845 59.4109L39.2329 46.3067L40.779 48.7362L41.7361 59.0429C42.1778 58.8956 42.6194 58.6749 43.0612 58.5276L42.3985 51.3129L43.7974 53.5214L44.2392 57.9387C44.7545 57.6442 46.0059 56.9816 46.0059 56.9816C53.6624 52.1227 55.9446 42.0368 51.0857 34.3804C47.3312 29.0061 41.2207 25.767 34.6685 25.767Z" fill="white"/>
<path d="M32.4599 8.83452C32.3126 8.54007 32.0917 8.24561 31.9446 7.95099L33.417 23.4848C33.5642 23.1903 33.6377 22.8222 33.785 22.5277L32.4599 8.83452Z" fill="white"/>
<path d="M19.9449 48.2944C20.0923 48.8097 20.3131 49.3251 20.5339 49.8404L19.5769 39.2392C19.4296 39.7546 19.356 40.3435 19.2825 40.8588L19.9449 48.2944Z" fill="white"/>
<path d="M65.7361 25.9142C64.5583 25.6197 63.6012 25.1779 62.865 24.6626L64.2637 21.4235C64.9263 21.8651 65.7361 22.2332 66.6932 22.5277C67.5766 22.8222 68.4601 22.9695 69.3435 22.9695C71.0368 22.9695 71.8466 22.5277 71.8466 21.7179C71.8466 21.2761 71.6257 20.9817 71.1104 20.7608C70.6686 20.5399 69.8588 20.319 68.8281 20.0983C67.6503 19.8775 66.6932 19.583 65.957 19.2884C65.1472 18.9939 64.4846 18.5523 63.9692 17.8897C63.3803 17.227 63.1594 16.4172 63.1594 15.313C63.1594 14.3559 63.3803 13.5461 63.8957 12.8099C64.411 12.0737 65.1472 11.4848 66.1779 11.043C67.2086 10.6014 68.4601 10.3805 69.9324 10.3805C70.9631 10.3805 71.9202 10.5277 72.9508 10.7485C73.9079 10.9694 74.7913 11.3376 75.5275 11.7792L74.2024 15.0185C72.7299 14.2088 71.3312 13.8406 69.9324 13.8406C69.049 13.8406 68.4601 13.9879 68.0183 14.2088C67.6503 14.4296 67.4294 14.7977 67.4294 15.2394C67.4294 15.681 67.6503 15.9756 68.1657 16.1964C68.6073 16.4172 69.417 16.6381 70.4477 16.859C71.6257 17.0799 72.5828 17.3743 73.3926 17.6688C74.1288 17.9632 74.7913 18.405 75.3804 19.0677C75.9693 19.6566 76.1901 20.5399 76.1901 21.5706C76.1901 22.5277 75.9693 23.3375 75.4539 24.0737C74.9386 24.8099 74.2024 25.3988 73.1717 25.8406C72.141 26.2824 70.8895 26.5031 69.417 26.5031C68.0919 26.3559 66.9141 26.2086 65.7361 25.9142Z" fill="white"/>
<path d="M89.5885 23.1166H83.11L81.932 26.135H77.5149L84.2878 10.7485H88.5578L95.4043 26.135H90.9136L89.5885 23.1166ZM88.2634 19.8774L86.2756 14.945L84.2878 19.8774H88.2634Z" fill="white"/>
<path d="M97.613 10.6749H101.957V26.0614H97.613V10.6749Z" fill="white"/>
<path d="M120.067 26.0614L119.993 17.8896L116.018 24.5154H114.104L110.202 18.1105V26.0614H106.153V10.6749H109.76L115.134 19.5829L120.435 10.6749H124.042L124.116 26.0614H120.067Z" fill="white"/>
<path d="M138.546 23.1166H132.067L130.889 26.135H126.472L133.245 10.7485H137.515L144.362 26.135H139.871L138.546 23.1166ZM137.221 19.8774L135.233 14.945L133.245 19.8774H137.221Z" fill="white"/>
<path d="M157.539 23.1166H151.061L149.883 26.135H145.466L152.239 10.7485H156.509L163.355 26.135H158.865L157.539 23.1166ZM156.288 19.8774L154.3 14.945L152.312 19.8774H156.288Z" fill="white"/>
<path d="M62.4966 36.2207V34.822H74.9382V36.2207H69.564V50.2085H67.9444V36.2207H62.4966Z" fill="white"/>
<path d="M89.147 50.2085L85.6132 45.2759C85.2452 45.3496 84.8034 45.3496 84.3618 45.3496H80.239V50.2085H78.6194V34.822H84.3618C86.3494 34.822 87.8954 35.2638 88.9998 36.2207C90.1041 37.1778 90.693 38.4293 90.693 40.1225C90.693 41.3005 90.3985 42.3311 89.8096 43.1409C89.2206 43.9507 88.3372 44.5398 87.2329 44.9078L90.9874 50.2085H89.147ZM87.8218 42.9201C88.6316 42.2576 88.9998 41.3005 88.9998 40.1225C88.9998 38.8711 88.6316 37.914 87.8218 37.2514C87.0121 36.5889 85.8341 36.2207 84.3618 36.2207H80.239V43.9507H84.3618C85.8341 43.9507 87.0121 43.5827 87.8218 42.9201Z" fill="white"/>
<path d="M105.269 46.0858H96.7296L94.889 50.2085H93.1958L100.263 34.822H101.883L108.95 50.2085H107.257L105.269 46.0858ZM104.68 44.7605L100.999 36.5151L97.3185 44.7605H104.68Z" fill="white"/>
<path d="M124.411 34.822L117.564 50.2085H115.944L109.098 34.822H110.865L116.754 48.1472L122.718 34.822H124.411Z" fill="white"/>
<path d="M138.619 48.8096V50.2085H127.724V34.822H138.251V36.2207H129.343V41.6685H137.294V43.0674H129.343V48.8096H138.619Z" fill="white"/>
<path d="M143.552 34.822H145.172V48.8096H153.785V50.2085H143.552V34.822Z" fill="white"/>
</svg>
